<svg width="32" height="33" viewBox="0 0 32 33" fill="none" xmlns="http://www.w3.org/2000/svg">
<path fill-rule="evenodd" clip-rule="evenodd" d="M1.35177 14.0701C1.25421 13.6798 1.54937 13.3018 1.95165 13.3018H30.0477C30.4499 13.3018 30.7451 13.6798 30.6476 14.0701L26.7455 29.6784C26.6079 30.2289 26.1132 30.6151 25.5457 30.6151H6.45359C5.88612 30.6151 5.39148 30.2289 5.25384 29.6784L1.35177 14.0701ZM16.9997 18.7918C16.9997 18.2395 16.5519 17.7918 15.9997 17.7918C15.4474 17.7918 14.9997 18.2395 14.9997 18.7918V25.1251C14.9997 25.6774 15.4474 26.1251 15.9997 26.1251C16.5519 26.1251 16.9997 25.6774 16.9997 25.1251V18.7918ZM22.7581 18.0431C23.2771 18.232 23.5447 18.8058 23.3557 19.3248L21.1897 25.2762C21.0007 25.7952 20.4269 26.0628 19.9079 25.8738C19.3889 25.685 19.1213 25.1111 19.3103 24.5922L21.4764 18.6408C21.6653 18.1218 22.2391 17.8542 22.7581 18.0431ZM10.5229 18.6408C10.3341 18.1218 9.76021 17.8542 9.24128 18.0431C8.72228 18.232 8.45468 18.8058 8.64361 19.3248L10.8097 25.2762C10.9986 25.7952 11.5725 26.0628 12.0914 25.8738C12.6104 25.685 12.878 25.1111 12.6891 24.5922L10.5229 18.6408Z" fill="white"/>
<path d="M24.6663 14.6251L18.1179 6.06181C17.0506 4.66608 14.9487 4.66608 13.8814 6.06181L7.33301 14.6251" stroke="white" stroke-width="2" stroke-linecap="round" stroke-linejoin="round"/>
</svg>
