<svg width="16" height="16" viewBox="0 0 16 16" fill="none" xmlns="http://www.w3.org/2000/svg">
<path d="M14.1892 5.51714L10.222 4.94058L8.44859 1.34527C8.40015 1.24683 8.32046 1.16714 8.22203 1.11871C7.97515 0.996832 7.67515 1.09839 7.55171 1.34527L5.77828 4.94058L1.81109 5.51714C1.70171 5.53277 1.60171 5.58433 1.52515 5.66246C1.43259 5.75759 1.38159 5.88558 1.38334 6.0183C1.3851 6.15103 1.43948 6.27762 1.53453 6.37027L4.40484 9.16871L3.72671 13.1203C3.71081 13.2122 3.72098 13.3067 3.75608 13.3932C3.79117 13.4796 3.84978 13.5545 3.92526 13.6093C4.00074 13.6641 4.09007 13.6967 4.18312 13.7033C4.27617 13.71 4.36922 13.6904 4.45171 13.6468L8.00015 11.7812L11.5486 13.6468C11.6455 13.6984 11.758 13.7156 11.8658 13.6968C12.1377 13.65 12.3205 13.3921 12.2736 13.1203L11.5955 9.16871L14.4658 6.37027C14.5439 6.29371 14.5955 6.19371 14.6111 6.08433C14.6533 5.81089 14.4627 5.55777 14.1892 5.51714Z" fill="#FFE600"/>
</svg>
